G04 MADE WITH FRITZING*
G04 WWW.FRITZING.ORG*
G04 DOUBLE SIDED*
G04 HOLES PLATED*
G04 CONTOUR ON CENTER OF CONTOUR VECTOR*
%ASAXBY*%
%FSLAX23Y23*%
%MOIN*%
%OFA0B0*%
%SFA1.0B1.0*%
%ADD10C,0.076889*%
%ADD11C,0.088000*%
%ADD12C,0.121000*%
%ADD13C,0.049370*%
%ADD14C,0.135984*%
%ADD15R,0.045433X0.128110*%
%LNMASK1*%
G90*
G70*
G54D10*
X1422Y1500D03*
X1322Y1500D03*
X1222Y1500D03*
X1122Y1500D03*
X1022Y1500D03*
X922Y1500D03*
X822Y1500D03*
X722Y1500D03*
X622Y1500D03*
X522Y1500D03*
X422Y1500D03*
X322Y1500D03*
X222Y1500D03*
X122Y1500D03*
X222Y1386D03*
X522Y1386D03*
X422Y1386D03*
X1422Y900D03*
X1322Y900D03*
X1222Y900D03*
X1122Y900D03*
X1022Y900D03*
X922Y900D03*
X822Y900D03*
X722Y900D03*
X622Y900D03*
X522Y900D03*
X422Y900D03*
X322Y900D03*
X222Y900D03*
X122Y900D03*
X622Y1386D03*
X1422Y1100D03*
X1422Y1000D03*
X1422Y1200D03*
X1422Y1400D03*
X1422Y1300D03*
G54D11*
X622Y1900D03*
X722Y1900D03*
X822Y1900D03*
X922Y1900D03*
X1922Y1900D03*
X1922Y1800D03*
X1922Y1700D03*
X1922Y1500D03*
X1922Y1400D03*
X1922Y1300D03*
X1922Y1100D03*
X1922Y1000D03*
X1922Y900D03*
X1922Y700D03*
X1922Y600D03*
X1922Y500D03*
G54D12*
X1763Y364D03*
X1246Y364D03*
X1763Y364D03*
X1246Y364D03*
G54D11*
X222Y700D03*
X222Y600D03*
X222Y500D03*
X322Y300D03*
X322Y200D03*
X322Y100D03*
X622Y600D03*
X622Y500D03*
X622Y400D03*
X622Y300D03*
X622Y200D03*
X622Y100D03*
G54D13*
X1722Y1000D03*
X1322Y700D03*
X894Y547D03*
X1722Y1400D03*
X1522Y1800D03*
G54D14*
X122Y1900D03*
X1914Y89D03*
X122Y100D03*
G54D11*
X1772Y1797D03*
G54D15*
X1465Y500D03*
X1386Y500D03*
X1543Y500D03*
X1622Y500D03*
G04 End of Mask1*
M02*