; NON-PLATED HOLES START AT T1
; THROUGH (PLATED) HOLES START AT T100
M48
INCH
T1C0.125984
T100C0.038000
T101C0.015748
T102C0.091000
T103C0.039111
%
T1
X001222Y001000
X001222Y019000
X019138Y000888
T100
X007222Y019000
X006222Y001000
X019222Y011000
X006222Y019000
X003222Y001000
X019222Y019000
X006222Y006000
X002222Y005000
X019222Y009000
X006222Y003000
X019222Y013000
X019222Y006000
X019222Y010000
X003222Y003000
X009222Y019000
X008222Y019000
X002222Y007000
X019222Y018000
X006222Y005000
X019222Y015000
X006222Y002000
X019222Y005000
X003222Y002000
X017722Y017972
X002222Y006000
X019222Y017000
X006222Y004000
X019222Y014000
X019222Y007000
T101
X017222Y014000
X008944Y005472
X017222Y010000
X015222Y018000
X013222Y007000
T102
X017626Y003641
X012456Y003641
T103
X001222Y015000
X003222Y015000
X005222Y015000
X007222Y015000
X009222Y015000
X002222Y013857
X004222Y015000
X006222Y015000
X008222Y015000
X014222Y012000
X010222Y009000
X012222Y009000
X011222Y009000
X013222Y009000
X004222Y013857
X014222Y009000
X010222Y015000
X012222Y015000
X014222Y010000
X011222Y015000
X013222Y015000
X014222Y015000
X014222Y013000
X014222Y011000
X005223Y013857
X002222Y009000
X006223Y013857
X001222Y009000
X003222Y009000
X005222Y009000
X007222Y009000
X009222Y009000
X014222Y014000
X004222Y009000
X006222Y009000
X008222Y009000
X002222Y015000
T00
M30
